<?xml version="1.0" encoding="UTF-8" standalone="no"?>
<!-- Created with Inkscape (http://www.inkscape.org/) -->

<svg
   width="19.032194mm"
   height="23.68926mm"
   viewBox="0 0 19.032194 23.68926"
   version="1.1"
   id="svg1"
   xmlns="http://www.w3.org/2000/svg"
   xmlns:svg="http://www.w3.org/2000/svg">
  <defs
     id="defs1" />
  <g
     id="layer1"
     transform="translate(-95.300361,-99.630233)">
    <path
       fill="#d70751"
       d="m 112.12093,109.76941 c 0.0238,0.63922 -0.18652,0.94984 -0.37676,1.4991 l -0.34209,0.17012 c -0.27966,0.54345 0.0278,0.34501 -0.17251,0.77707 -0.43708,0.38814 -1.32448,1.21415 -1.60863,1.28982 -0.2077,-0.005 0.14049,-0.245 0.186,-0.33893 -0.58446,0.4011 -0.4691,0.60218 -1.36311,0.84639 l -0.0259,-0.0585 c -2.20393,1.03714 -5.26563,-1.01783 -5.22541,-3.8213 -0.0233,0.1778 -0.0669,0.13335 -0.11562,0.20478 -0.11377,-1.44221 0.66621,-2.89077 1.98169,-3.48316 1.28664,-0.63658 2.795,-0.3757 3.71599,0.48391 -0.50587,-0.66303 -1.51365,-1.36602 -2.70716,-1.30093 -1.1697,0.0191 -2.26425,0.76225 -2.62937,1.56948 -0.59901,0.37702 -0.66885,1.45412 -0.92973,1.65149 -0.35162,2.58228 0.66065,3.69748 2.37326,5.01005 0.26882,0.1815 0.0757,0.20928 0.11166,0.34739 -0.56885,-0.26617 -1.08954,-0.66833 -1.51815,-1.16071 0.22754,0.33258 0.4728,0.65589 0.79003,0.90989 -0.53683,-0.18124 -1.25357,-1.29987 -1.46232,-1.34538 0.9247,1.65573 3.75118,2.90374 5.23202,2.28436 -0.68525,0.0254 -1.55545,0.014 -2.32484,-0.27039 -0.32411,-0.16642 -0.76304,-0.51064 -0.68447,-0.57493 2.02032,0.75431 4.10678,0.57096 5.85458,-0.82998 0.44502,-0.3466 0.93079,-0.93581 1.07128,-0.94375 -0.2114,0.31802 0.0363,0.15292 -0.1262,0.43364 0.44237,-0.71462 -0.19288,-0.29103 0.45771,-1.23399 l 0.24024,0.33072 c -0.0899,-0.59371 0.73685,-1.31389 0.65272,-2.25208 0.1897,-0.28681 0.21139,0.30902 0.0103,0.96888 0.27913,-0.73209 0.0738,-0.84982 0.14526,-1.45412 0.077,0.2032 0.17938,0.41883 0.2315,0.6334 -0.18203,-0.70775 0.186,-1.19139 0.27754,-1.60281 -0.0905,-0.0397 -0.28071,0.31273 -0.32463,-0.52281 0.007,-0.363 0.10133,-0.19023 0.13758,-0.27966 -0.0709,-0.041 -0.25797,-0.31934 -0.37147,-0.853 0.0818,-0.12567 0.22013,0.32517 0.33231,0.34342 -0.0722,-0.42411 -0.19632,-0.74769 -0.20161,-1.07339 -0.32807,-0.68525 -0.11615,0.0915 -0.38178,-0.29421 -0.34925,-1.08847 0.28944,-0.25267 0.33284,-0.7469 0.52862,0.76595 0.82998,1.95391 0.96888,2.44576 -0.10583,-0.5998 -0.27648,-1.18108 -0.48524,-1.74331 0.16113,0.068 -0.25902,-1.23372 0.20928,-0.37173 -0.49978,-1.83749 -2.13725,-3.5546 -3.64403,-4.35998 0.18389,0.16854 0.41645,0.3802 0.33337,0.41354 -0.74981,-0.44582 -0.61805,-0.481 -0.72547,-0.66938 -0.60985,-0.24844 -0.6506,0.0204 -1.05408,5.3e-4 -1.15091,-0.61065 -1.37263,-0.54583 -2.43173,-0.927879 l 0.0481,0.225419 c -0.76225,-0.253993 -0.88819,0.0958 -1.71182,5.3e-4 -0.05,-0.0389 0.26405,-0.141813 0.52281,-0.179118 -0.73712,0.09736 -0.70272,-0.145518 -1.42396,0.02672 0.17753,-0.124616 0.36591,-0.207429 0.55535,-0.31326 -0.60086,0.03651 -1.43507,0.349772 -1.17764,0.06456 -0.98026,0.437608 -2.72145,1.051698 -3.69853,1.967928 l -0.0307,-0.20531 c -0.44767,0.53736 -1.95232,1.60493 -2.07218,2.30156 l -0.11985,0.0278 c -0.23256,0.39449 -0.38364,0.84136 -0.56831,1.24696 -0.30453,0.51936 -0.44661,0.20002 -0.40322,0.28151 -0.59927,1.21494 -0.89745,2.23568 -1.15435,3.07333 0.18309,0.27384 0.004,1.64885 0.0736,2.74923 -0.30056,5.43549 3.81468,10.71249 8.31304,11.93061 0.65932,0.23627 1.63958,0.2278 2.47353,0.25108 -0.9837,-0.28151 -1.11069,-0.14895 -2.06952,-0.48311 -0.69135,-0.32596 -0.84268,-0.6977 -1.33268,-1.12287 l 0.19393,0.34263 c -0.96041,-0.33999 -0.55852,-0.42068 -1.34008,-0.66806 l 0.20716,-0.27014 c -0.31141,-0.0238 -0.82469,-0.52439 -0.96491,-0.80246 l -0.34078,0.0135 c -0.40904,-0.50429 -0.62732,-0.86861 -0.61118,-1.15092 l -0.11006,0.19632 c -0.12462,-0.21404 -1.50571,-1.89385 -0.78924,-1.5028 -0.13308,-0.12118 -0.31008,-0.19764 -0.5019,-0.54662 l 0.14578,-0.16642 c -0.34421,-0.44369 -0.63446,-1.01227 -0.61223,-1.20171 0.18388,0.24817 0.31141,0.29474 0.43788,0.33734 -0.87073,-2.16002 -0.91968,-0.1188 -1.57874,-2.19865 l 0.13917,-0.0111 c -0.10663,-0.16165 -0.17198,-0.33601 -0.2577,-0.50772 l 0.0608,-0.60456 c -0.62652,-0.72389 -0.17515,-3.08101 -0.0844,-4.37347 0.0622,-0.52545 0.52307,-1.08504 0.87311,-1.96264 l -0.21325,-0.0365 c 0.40798,-0.71119 2.32881,-2.85718 3.21885,-2.74711 0.431,-0.54133 -0.0857,-0.002 -0.17012,-0.13811 0.94692,-0.97973 1.24457,-0.69214 1.88353,-0.86861 0.68869,-0.40877 -0.59133,0.1598 -0.26484,-0.15584 1.19139,-0.304 0.844,-0.69161 2.39786,-0.84585 0.16404,0.0931 -0.38019,0.14393 -0.51672,0.26484 0.99217,-0.48577 3.14028,-0.37491 4.53619,0.26934 1.61842,0.75696 3.43793,2.99343 3.50989,5.09762 l 0.0818,0.022 c -0.0413,0.8366 0.12805,1.80416 -0.16589,2.69261 l 0.19869,-0.42094"
       id="path2"
       style="stroke-width:0.264578" />
  </g>
</svg>
