<?xml version="1.0" encoding="UTF-8" standalone="no"?>
<!-- Created with Inkscape (http://www.inkscape.org/) -->

<svg
   width="135.46616mm"
   height="135.46667mm"
   viewBox="0 0 135.46616 135.46667"
   version="1.1"
   id="svg1"
   xmlns="http://www.w3.org/2000/svg"
   xmlns:svg="http://www.w3.org/2000/svg">
  <defs
     id="defs1" />
  <g
     id="layer1"
     transform="translate(-40.523082,-64.399092)">
    <path
       id="path1"
       d="M 108.2616,64.399087 C 70.863854,64.399934 40.559944,94.703944 40.535484,132.0885 h -0.0124 v 52.4185 h 0.0124 c 0.0173,8.48735 6.89701,15.35876 15.38979,15.35876 h 52.365256 c 37.40315,-0.024 67.69871,-30.32441 67.69871,-67.71887 5e-5,-37.409992 -30.31132,-67.746956 -67.72611,-67.747803 z m 13.71439,27.795201 -0.007,0.02223 c 11.36472,0 22.09477,8.719842 22.09477,20.749642 0,1.11585 0.007,2.2313 -0.17467,3.49643 -0.31494,3.20028 -3.23295,5.50154 -6.41098,5.05034 -3.17803,-0.45648 -5.33577,-3.48178 -4.74804,-6.64559 0.054,-0.3611 0.0739,-0.92806 0.0739,-1.90273 0,-6.82203 -5.57069,-9.45576 -10.83655,-9.45576 -5.26452,0 -10.00878,4.4358 -10.0154,9.45576 0.0909,5.80414 0,11.56428 0,17.35966 l 9.77045,-0.0739 c 7.62937,-0.15837 7.71521,11.35573 0.0878,11.30164 l -9.85624,0.0718 c -0.024,4.66872 0.0361,3.82462 0.0123,6.17585 0,0 0.0816,5.71018 -0.0884,10.03712 -1.17946,12.71198 -11.978756,22.87147 -24.956606,22.87147 -13.75802,0 -25.09047,-11.26713 -25.09047,-25.08684 0.41305,-14.21148 11.72226,-25.39037 25.96949,-25.26203 l 7.94732,-0.0589 v 11.27889 l -7.94732,0.0739 h -0.0414 c -7.82771,0.23208 -14.53912,5.56118 -14.66473,13.96246 0,7.65285 6.17091,13.78572 13.83066,13.78572 7.64921,0 13.770736,-5.57754 13.770736,-13.7728 l -0.0123,-42.72298 c 0.005,-0.79298 0.03,-1.42231 0.1168,-2.29701 1.29116,-10.44921 10.6178,-18.414384 21.17595,-18.414384 z"
       style="fill:#51a2da;fill-opacity:1;stroke-width:2.47011" />
  </g>
</svg>
