<?xml version="1.0" encoding="UTF-8" standalone="no"?>
<!-- Created with Inkscape (http://www.inkscape.org/) -->

<svg
   width="60.376087mm"
   height="62.26432mm"
   viewBox="0 0 60.376087 62.26432"
   version="1.1"
   id="svg1"
   xmlns="http://www.w3.org/2000/svg"
   xmlns:svg="http://www.w3.org/2000/svg">
  <defs
     id="defs1" />
  <g
     id="layer1"
     transform="translate(-77.035209,-102.76217)">
    <path
       style="fill:#74b926;stroke:none;stroke-width:0.264583"
       d="m 110.41389,111.84188 c -3.04287,-0.0801 -5.94524,-0.98429 -9.07143,-0.68036 -5.668416,0.5511 -11.409946,2.97737 -15.648206,6.80357 -10.85678,9.80126 -11.55276,27.31277 -1.81429,38.1 4.18501,4.63571 10.075,7.28669 16.10179,8.54226 5.970436,1.24385 13.725866,-0.26991 18.142856,-4.6869 1.64716,-1.64716 2.64219,-3.93297 3.25059,-6.12321 1.61347,-5.80851 0.90343,-13.27758 -4.83809,-16.70655 -4.39856,-2.62692 -11.22439,-2.15758 -14.21191,2.41905 -2.725016,4.17449 -2.06321,10.774 3.55298,11.94404 2.07237,0.43175 4.99395,-0.14723 6.27441,-1.96547 1.57234,-2.23272 1.05866,-6.03767 -2.19227,-6.12321 0,1.38645 -0.38285,2.96921 -1.5875,3.81756 -1.17399,0.82675 -2.49464,-0.57886 -2.49464,-1.77649 0,-0.67048 0.32728,-1.47358 0.64256,-2.04107 1.92757,-3.46963 6.75717,-2.72475 8.80684,0.22678 3.95407,5.69384 -2.58319,12.8349 -8.54226,12.58661 -1.95142,-0.0813 -3.70543,-0.5676 -5.44286,-1.43631 -1.31534,-0.65768 -2.351096,-1.48176 -3.401776,-2.53244 -6.85941,-6.85941 -3.75209,-18.32248 4.762496,-22.225 6.499,-2.97871 13.94796,0.03 20.6375,0.68036 4.48508,0.43605 8.59058,-1.23369 12.47321,-3.175 v -0.22679 c -1.66315,0.0438 -3.3334,0.51937 -4.98928,0.68036 -3.58077,0.34813 -6.97465,-0.28697 -9.525,-2.94822 -0.70959,-0.74043 -1.05647,-1.5312 -1.36072,-2.49464 3.3791,3.3791 8.03625,3.1528 12.47322,2.72143 1.30237,-0.12663 2.57373,-0.30216 3.85535,-0.60476 0.31227,-0.0737 0.80799,-0.0926 1.02054,-0.37798 0.36259,-0.4869 -0.17369,-1.27764 -0.34018,-1.73869 -0.6198,-1.71638 -1.41077,-3.42759 -2.34345,-4.98929 -4.35213,-7.28729 -11.2725,-11.98392 -19.42798,-13.90952 -1.89704,-0.44791 -3.94712,-0.83155 -5.89643,-0.83155 -0.68027,0 -1.68537,-0.13448 -1.96547,0.68036 -0.27353,0.7957 0.455,1.62602 0.79375,2.26786 1.04036,1.97122 1.46473,4.12602 2.30565,6.12321 m 14.51429,2.30566 c 5.87482,-0.89754 6.64185,8.43785 0.68036,8.76904 -5.42335,0.30129 -6.01713,-7.95371 -0.68036,-8.76904 m 0.68036,2.53244 c -2.23835,0.78815 -0.96094,4.58482 1.36071,3.55297 2.18061,-0.96916 0.92962,-4.35943 -1.36071,-3.55297 m -23.35893,15.34583 c 0.26843,0.9273 0.56613,3.40826 1.81428,3.55298 0.57349,0.0665 1.17609,-0.35121 1.69743,-0.56119 0.41539,-0.16731 1.30479,-0.41795 1.59097,-0.79953 0.3106,-0.41414 0.0186,-1.065 0,-1.5119 -0.0307,-0.73752 0.13758,-1.56799 0.34017,-2.26786 -1.91441,0 -3.8391,0.57461 -5.44285,1.5875 m -1.5875,0.90714 c -0.62947,0.51351 -1.535046,1.02717 -1.852086,1.81429 -0.56186,1.39496 1.421926,2.90763 2.305656,3.62857 h 0.22678 l 1.09614,-1.5875 -0.49138,-1.13393 -1.28511,-2.72143 m -4.989286,9.75179 c 0,0.84416 -0.1063,2.69072 0.52917,3.32619 0.68037,0.68037 2.32171,0.62983 3.0994,0.30238 l -0.22678,-2.72143 -3.40179,-0.90714 m 1.13393,5.21607 c 0.44577,2.1174 2.83017,5.10635 4.989286,3.40179 v -0.22679 l -2.267856,-3.175 z"
       id="path180008" />
  </g>
</svg>
